<?xml version="1.0" encoding="UTF-8" standalone="no"?>
<!-- Created with Inkscape (http://www.inkscape.org/) -->

<svg
   xmlns:dc="http://purl.org/dc/elements/1.1/"
   xmlns:cc="http://creativecommons.org/ns#"
   xmlns:rdf="http://www.w3.org/1999/02/22-rdf-syntax-ns#"
   xmlns:svg="http://www.w3.org/2000/svg"
   xmlns="http://www.w3.org/2000/svg"
   xmlns:xlink="http://www.w3.org/1999/xlink"
   xmlns:sodipodi="http://sodipodi.sourceforge.net/DTD/sodipodi-0.dtd"
   xmlns:inkscape="http://www.inkscape.org/namespaces/inkscape"
   width="1920"
   height="540"
   viewBox="0 0 508.00001 142.87501"
   version="1.1"
   id="svg8"
   inkscape:version="0.92.5 (2060ec1f9f, 2020-04-08)"
   sodipodi:docname="Subscribe button #1.svg">
  <defs
     id="defs2">
    <color-profile
       name="sRGB"
       xlink:href="/usr/share/color/icc/colord/sRGB.icc"
       id="color-profile3" />
  </defs>
  <sodipodi:namedview
     id="base"
     pagecolor="#ffffff"
     bordercolor="#666666"
     borderopacity="1.0"
     inkscape:pageopacity="0.0"
     inkscape:pageshadow="2"
     inkscape:zoom="0.12374369"
     inkscape:cx="-1758.5584"
     inkscape:cy="-443.74411"
     inkscape:document-units="mm"
     inkscape:current-layer="layer1"
     showgrid="false"
     units="px"
     inkscape:window-width="1864"
     inkscape:window-height="1016"
     inkscape:window-x="56"
     inkscape:window-y="27"
     inkscape:window-maximized="1"
     inkscape:snap-bbox="true"
     inkscape:bbox-paths="true"
     inkscape:bbox-nodes="true"
     inkscape:snap-bbox-edge-midpoints="true"
     inkscape:snap-bbox-midpoints="true"
     inkscape:object-paths="true"
     inkscape:snap-intersection-paths="true"
     inkscape:snap-smooth-nodes="true"
     inkscape:snap-midpoints="true"
     inkscape:snap-page="true"
     showguides="false"
     inkscape:snap-global="true"
     fit-margin-top="0"
     fit-margin-left="0"
     fit-margin-right="0"
     fit-margin-bottom="0">
    <sodipodi:guide
       id="guide816"
       position="-4.1772989e-06,-71.437498"
       orientation="285.75,0"
       inkscape:locked="false" />
    <sodipodi:guide
       id="guide818"
       position="25.399996,-71.437498"
       orientation="285.75,0"
       inkscape:locked="false" />
    <sodipodi:guide
       id="guide820"
       position="50.800047,-71.437498"
       orientation="285.75,0"
       inkscape:locked="false" />
    <sodipodi:guide
       id="guide822"
       position="76.200047,-71.437498"
       orientation="285.75,0"
       inkscape:locked="false" />
    <sodipodi:guide
       id="guide824"
       position="101.60005,-71.437498"
       orientation="285.75,0"
       inkscape:locked="false" />
    <sodipodi:guide
       id="guide826"
       position="127.00005,-71.437498"
       orientation="285.75,0"
       inkscape:locked="false" />
    <sodipodi:guide
       id="guide828"
       position="152.40005,-71.437498"
       orientation="285.75,0"
       inkscape:locked="false" />
    <sodipodi:guide
       id="guide830"
       position="177.80005,-71.437498"
       orientation="285.75,0"
       inkscape:locked="false" />
    <sodipodi:guide
       id="guide832"
       position="203.20005,-71.437498"
       orientation="285.75,0"
       inkscape:locked="false" />
    <sodipodi:guide
       id="guide834"
       position="228.60005,-71.437498"
       orientation="285.75,0"
       inkscape:locked="false" />
    <sodipodi:guide
       id="guide836"
       position="254.00005,-71.437498"
       orientation="285.75,0"
       inkscape:locked="false" />
    <sodipodi:guide
       id="guide838"
       position="279.40005,-71.437498"
       orientation="285.75,0"
       inkscape:locked="false" />
    <sodipodi:guide
       id="guide840"
       position="304.80005,-71.437498"
       orientation="285.75,0"
       inkscape:locked="false" />
    <sodipodi:guide
       id="guide842"
       position="330.20005,-71.437498"
       orientation="285.75,0"
       inkscape:locked="false" />
    <sodipodi:guide
       id="guide844"
       position="355.60005,-71.437498"
       orientation="285.75,0"
       inkscape:locked="false" />
    <sodipodi:guide
       id="guide846"
       position="381.00005,-71.437498"
       orientation="285.75,0"
       inkscape:locked="false" />
    <sodipodi:guide
       id="guide848"
       position="406.40005,-71.437498"
       orientation="285.75,0"
       inkscape:locked="false" />
    <sodipodi:guide
       id="guide850"
       position="431.80005,-71.437498"
       orientation="285.75,0"
       inkscape:locked="false" />
    <sodipodi:guide
       id="guide852"
       position="457.20005,-71.437498"
       orientation="285.75,0"
       inkscape:locked="false" />
    <sodipodi:guide
       id="guide854"
       position="482.60006,-71.437498"
       orientation="285.75,0"
       inkscape:locked="false" />
    <sodipodi:guide
       id="guide856"
       position="508.00006,-71.437498"
       orientation="285.75,0"
       inkscape:locked="false" />
    <sodipodi:guide
       id="guide858"
       position="-4.1772989e-06,-71.437498"
       orientation="0,508.0"
       inkscape:locked="false" />
    <sodipodi:guide
       id="guide860"
       position="-4.1772989e-06,-57.149998"
       orientation="0,508.0"
       inkscape:locked="false" />
    <sodipodi:guide
       id="guide862"
       position="-4.1772989e-06,-42.862498"
       orientation="0,508.0"
       inkscape:locked="false" />
    <sodipodi:guide
       id="guide864"
       position="-4.1772989e-06,-28.574998"
       orientation="0,508.0"
       inkscape:locked="false" />
    <sodipodi:guide
       id="guide866"
       position="-4.1772989e-06,-14.287497"
       orientation="0,508.0"
       inkscape:locked="false" />
    <sodipodi:guide
       id="guide868"
       position="-4.1772989e-06,2.9812488e-06"
       orientation="0,508.0"
       inkscape:locked="false" />
    <sodipodi:guide
       id="guide870"
       position="-4.1772989e-06,14.287503"
       orientation="0,508.0"
       inkscape:locked="false" />
    <sodipodi:guide
       id="guide872"
       position="-4.1772989e-06,28.575004"
       orientation="0,508.0"
       inkscape:locked="false" />
    <sodipodi:guide
       id="guide874"
       position="-4.1772989e-06,42.862504"
       orientation="0,508.0"
       inkscape:locked="false" />
    <sodipodi:guide
       id="guide876"
       position="-4.1772989e-06,57.150004"
       orientation="0,508.0"
       inkscape:locked="false" />
    <sodipodi:guide
       id="guide878"
       position="-4.1772989e-06,71.437504"
       orientation="0,508.0"
       inkscape:locked="false" />
    <sodipodi:guide
       id="guide880"
       position="-4.1772989e-06,85.725005"
       orientation="0,508.0"
       inkscape:locked="false" />
    <sodipodi:guide
       id="guide882"
       position="-4.1772989e-06,100.0125"
       orientation="0,508.0"
       inkscape:locked="false" />
    <sodipodi:guide
       id="guide884"
       position="-4.1772989e-06,114.30001"
       orientation="0,508.0"
       inkscape:locked="false" />
    <sodipodi:guide
       id="guide886"
       position="-4.1772989e-06,128.58751"
       orientation="0,508.0"
       inkscape:locked="false" />
    <sodipodi:guide
       id="guide888"
       position="-4.1772989e-06,142.87501"
       orientation="0,508.0"
       inkscape:locked="false" />
    <sodipodi:guide
       id="guide890"
       position="-4.1772989e-06,157.16251"
       orientation="0,508.0"
       inkscape:locked="false" />
    <sodipodi:guide
       id="guide892"
       position="-4.1772989e-06,171.45001"
       orientation="0,508.0"
       inkscape:locked="false" />
    <sodipodi:guide
       id="guide894"
       position="-4.1772989e-06,185.73751"
       orientation="0,508.0"
       inkscape:locked="false" />
    <sodipodi:guide
       id="guide896"
       position="-4.1772989e-06,200.02501"
       orientation="0,508.0"
       inkscape:locked="false" />
    <sodipodi:guide
       id="guide898"
       position="-4.1772989e-06,214.31251"
       orientation="0,508.0"
       inkscape:locked="false" />
  </sodipodi:namedview>
  <metadata
     id="metadata5">
    <rdf:RDF>
      <cc:Work
         rdf:about="">
        <dc:format>image/svg+xml</dc:format>
        <dc:type
           rdf:resource="http://purl.org/dc/dcmitype/StillImage" />
        <dc:title />
      </cc:Work>
    </rdf:RDF>
  </metadata>
  <g
     inkscape:label="Layer 1"
     inkscape:groupmode="layer"
     id="layer1"
     transform="translate(0,-82.687485)">
    <rect
       style="opacity:0.969;vector-effect:none;fill:#c30000;fill-opacity:1;stroke:none;stroke-width:0.52916664;stroke-linecap:round;stroke-linejoin:round;stroke-miterlimit:4;stroke-dasharray:none;stroke-dashoffset:51.17480469;stroke-opacity:1;paint-order:fill markers stroke"
       id="rect856"
       width="508"
       height="142.875"
       x="-6.0159282e-14"
       y="82.687485"
       ry="15.875" />
    <path
       inkscape:connector-curvature="0"
       id="path879"
       d="M 64.354587,196.9657 C 56.487174,196.9274 46.783461,196.75612 43.08522,196.59025 40.269623,196.464 39.55085,196.35463 37.659087,195.76488 29.137438,193.10827 26.10993,185.87773 25.34842,166.36364 25.065561,159.11497 25.090133,146.52658 25.4,139.94969 c 0.435819,-9.25059 1.454938,-14.36003 3.859443,-19.34974 2.590974,-5.37666 5.531345,-7.20708 13.313865,-8.28808 2.050469,-0.28482 3.842418,-0.43972 6.552303,-0.56643 15.151495,-0.7084 56.693849,-0.62089 72.887669,0.15356 11.37515,0.544 18.17891,3.08063 21.64999,8.07172 1.8418,2.64834 2.87948,6.0285 3.35974,10.94398 0.28021,2.86811 0.31247,4.12355 0.36048,14.02599 0.0241,4.9974 0.0602,11.05574 0.0801,13.46293 0.0354,4.30019 -0.0193,9.44905 -0.13088,12.30743 -0.3094,7.92785 -1.02026,12.16838 -2.66174,15.8787 -0.5951,1.34514 -1.22799,2.45033 -2.53209,4.42177 -1.17086,1.77004 -1.64323,2.3475 -2.40726,2.94292 -2.50702,1.95374 -6.80936,2.52554 -20.98783,2.78941 -9.30055,0.17311 -39.279994,0.29538 -54.389174,0.22185 z m 13.949199,-24.05069 c 6.74275,-4.22456 16.4182,-10.71202 23.444964,-15.72 2.42882,-1.73101 4.42792,-3.20779 4.42792,-3.27096 0,-0.0849 -11.267464,-7.54053 -19.068214,-12.61737 -5.50971,-3.58582 -10.49419,-6.75751 -10.61972,-6.75751 -0.0638,0 -0.064,-0.21306 0.003,2.94341 0.0297,1.40772 0.0695,10.14966 0.0886,19.42653 0.019,9.27688 0.0537,16.89623 0.0769,16.93186 0.023,0.0357 0.0691,0.0489 0.10236,0.0294 0.0333,-0.0194 0.72847,-0.45389 1.54495,-0.96543 z"
       style="fill:#ffffff;stroke-width:0.0511898" />
    <path
       style="font-style:normal;font-variant:normal;font-weight:800;font-stretch:normal;font-size:56.55285645px;line-height:1.25;font-family:'Open Sans';-inkscape-font-specification:'Open Sans Ultra-Bold';text-align:center;letter-spacing:0px;word-spacing:0px;text-anchor:middle;fill:#ffffff;fill-opacity:1;stroke:none;stroke-width:5.34357738"
       d="m 730.54883,461.56836 c -17.8815,0 -31.93611,3.93069 -42.16406,11.79297 -10.22794,7.8623 -15.3418,18.82222 -15.3418,32.87695 0,7.51441 1.18317,14.01898 3.54883,19.51563 2.43522,5.49664 6.12248,10.36707 11.0625,14.61132 5.00958,4.24424 12.48982,8.62784 22.43945,13.15039 10.99331,4.94005 17.74325,8.21027 20.24805,9.81055 2.57438,1.6003 4.418,3.20051 5.53125,4.80078 1.18281,1.53071 1.77343,3.34038 1.77343,5.42774 0,3.33971 -1.42661,6.08721 -4.27929,8.24414 -2.85269,2.08733 -7.34003,3.13086 -13.46289,3.13086 -7.09695,0 -14.89042,-1.11335 -23.37891,-3.33985 C 688.0369,579.29378 679.8623,576.12732 672,572.0918 v 36.73828 c 7.44484,3.54845 14.61179,6.05253 21.5,7.51367 6.88819,1.39157 15.41195,2.08789 25.57031,2.08789 12.17613,0 22.78497,-2.01721 31.83008,-6.05273 9.04512,-4.1051 15.96865,-9.81152 20.76953,-17.11719 4.80086,-7.37525 7.20117,-15.79328 7.20117,-25.25586 0,-10.29753 -2.5739,-18.82126 -7.72265,-25.57031 -5.07918,-6.81862 -14.19354,-13.18551 -27.34375,-19.09961 -13.70684,-6.26202 -22.1268,-10.57578 -25.25781,-12.94141 -3.06142,-2.36566 -4.5918,-5.04331 -4.5918,-8.03515 0,-2.78312 1.21712,-5.11554 3.65234,-6.99415 2.43523,-1.8786 6.33197,-2.8164 11.68946,-2.8164 10.36711,0 22.68187,3.27022 36.94531,9.81055 l 12.6289,-31.83204 C 762.45073,465.22169 746.343,461.56836 730.54883,461.56836 Z m 429.15627,0 c -17.8815,0 -31.9362,3.93069 -42.1641,11.79297 -10.2279,7.8623 -15.3418,18.82222 -15.3418,32.87695 0,7.51441 1.1832,14.01898 3.5488,19.51563 2.4353,5.49664 6.1225,10.36707 11.0625,14.61132 5.0097,4.24424 12.4899,8.62784 22.4395,13.15039 10.9933,4.94005 17.7413,8.21027 20.2461,9.81055 2.5744,1.6003 4.4199,3.20051 5.5332,4.80078 1.1828,1.53071 1.7734,3.34038 1.7734,5.42774 0,3.33971 -1.4266,6.08721 -4.2793,8.24414 -2.8526,2.08733 -7.34,3.13086 -13.4629,3.13086 -7.0969,0 -14.8903,-1.11335 -23.3789,-3.33985 -8.4885,-2.29606 -16.6631,-5.46252 -24.5254,-9.49804 v 36.73828 c 7.4449,3.54845 14.6118,6.05253 21.5,7.51367 6.8882,1.39157 15.41,2.08789 25.5684,2.08789 12.1761,0 22.7869,-2.01721 31.832,-6.05273 9.0452,-4.1051 15.9687,-9.81152 20.7696,-17.11719 4.8008,-7.37525 7.2011,-15.79328 7.2011,-25.25586 0,-10.29753 -2.5739,-18.82126 -7.7226,-25.57031 -5.0792,-6.81862 -14.1936,-13.18551 -27.3438,-19.09961 -13.7068,-6.26202 -22.1268,-10.57578 -25.2578,-12.94141 -3.0614,-2.36566 -4.5918,-5.04331 -4.5918,-8.03515 0,-2.78312 1.2171,-5.11554 3.6524,-6.99415 2.4352,-1.8786 6.3319,-2.8164 11.6894,-2.8164 10.3671,0 22.6819,3.27022 36.9453,9.81055 l 12.6289,-31.83204 c -16.4203,-7.30565 -32.5281,-10.95898 -48.3222,-10.95898 z m 140.2695,0 c -15.0984,0 -28.2491,3.2363 -39.4512,9.70703 -11.1324,6.40116 -19.6901,15.58534 -25.6738,27.55273 -5.9141,11.96738 -8.8711,25.84646 -8.8711,41.64063 0,25.25677 6.1235,44.56489 18.3692,57.92383 12.3152,13.35894 29.9873,20.03906 53.0175,20.03906 16.0725,0 30.4763,-2.81732 43.209,-8.45312 v -34.85938 c -6.4011,2.64396 -12.768,4.9046 -19.0996,6.7832 -6.3316,1.87861 -12.872,2.81836 -19.6211,2.81836 -22.3344,0 -33.5019,-14.68113 -33.5019,-44.04297 0,-14.12429 2.7475,-25.18603 8.2441,-33.1875 5.4966,-8.07103 13.1505,-12.10742 22.9609,-12.10742 6.4708,0 12.5244,0.90581 18.1602,2.71485 5.6358,1.80903 11.2724,4.03377 16.9082,6.67773 l 12.627,-32.45703 c -15.0289,-7.16651 -30.7875,-10.75 -47.2774,-10.75 z m -498.35155,2.19141 v 92.7832 c 0,19.96883 5.56677,35.2745 16.69922,45.91992 11.20204,10.64542 27.20405,15.96875 48.00781,15.96875 21.29081,0 37.57214,-5.46105 48.84375,-16.38476 11.3412,-10.99332 17.01172,-26.47453 17.01172,-46.44336 v -91.84375 h -41.22461 v 89.33789 c 0,10.99328 -1.91347,18.92642 -5.74024,23.79687 -3.7572,4.80088 -9.84475,7.20117 -18.26367,7.20117 -7.86227,0 -13.81213,-2.43619 -17.84765,-7.30664 -4.03551,-4.87045 -6.05274,-12.69787 -6.05274,-23.48242 v -89.54687 z m 162.60351,0 v 152.58398 h 59.38474 c 17.9511,0 32.1095,-3.96462 42.4766,-11.89648 10.4367,-8.00147 15.6562,-18.92552 15.6562,-32.77149 0,-9.32344 -2.1229,-16.90742 -6.3671,-22.75195 -4.2443,-5.84454 -11.098,-10.0206 -20.5606,-12.52539 v -1.04297 c 7.1665,-1.73944 12.9428,-5.63619 17.3262,-11.68945 4.3834,-6.0533 6.5742,-13.35796 6.5742,-21.91602 0,-13.01105 -5.044,-22.57831 -15.1328,-28.70117 -10.0192,-6.19243 -25.3967,-9.28906 -46.1309,-9.28906 z m 406.09184,0 v 152.58398 h 41.2246 v -55.52344 h 10.4355 l 32.3555,55.52344 h 46.7558 l -44.4609,-66.48047 c 17.2553,-9.67133 25.8828,-23.34481 25.8828,-41.01758 0,-30.05762 -20.7347,-45.08593 -62.2031,-45.08593 z m 144.6523,0 v 152.58398 h 41.4336 V 463.75977 Z m 74.4121,0 v 152.58398 h 59.3848 c 17.9511,0 32.1114,-3.96462 42.4785,-11.89648 10.4367,-8.00147 15.6543,-18.92552 15.6543,-32.77149 0,-9.32344 -2.121,-16.90742 -6.3652,-22.75195 -4.2443,-5.84454 -11.098,-10.0206 -20.5606,-12.52539 v -1.04297 c 7.1665,-1.73944 12.9408,-5.63619 17.3242,-11.68945 4.3834,-6.0533 6.5742,-13.35796 6.5742,-21.91602 0,-13.01105 -5.044,-22.57831 -15.1328,-28.70117 -10.0192,-6.19243 -25.3947,-9.28906 -46.1289,-9.28906 z m 144.0274,0 V 616.34375 H 1824 v -33.60547 h -49.3652 v -28.80469 h 45.7129 v -33.08398 h -45.7129 V 496.84375 H 1824 v -33.08398 z m -727.959,31.20507 h 11.5859 c 12.9415,0 19.4121,4.27983 19.4121,12.83789 0,4.80089 -1.6361,8.41829 -4.9062,10.85352 -3.2006,2.43523 -7.7578,3.6543 -13.6719,3.6543 h -12.4199 z m 406.0918,0 h 8.1406 c 14.1243,0 21.1855,5.25351 21.1855,15.75977 0,12.73275 -7.2009,19.09961 -21.6035,19.09961 h -7.7226 z m 219.0664,0 h 11.584 c 12.9414,0 19.4121,4.27983 19.4121,12.83789 0,4.80089 -1.6361,8.41829 -4.9063,10.85352 -3.2006,2.43523 -7.7577,3.6543 -13.6719,3.6543 h -12.4179 z m -625.1582,57.50782 h 13.6718 c 6.5404,0 11.5165,1.35678 14.9258,4.07031 3.4789,2.71355 5.2168,6.60832 5.2168,11.6875 0,10.85412 -6.4347,16.28125 -19.3066,16.28125 h -14.5078 z m 625.1582,0 h 13.6718 c 6.5403,0 11.5146,1.35678 14.9239,4.07031 3.4789,2.71355 5.2187,6.60832 5.2187,11.6875 0,10.85412 -6.4367,16.28125 -19.3086,16.28125 h -14.5058 z"
       transform="matrix(0.26458333,0,0,0.26458333,0,11.249983)"
       id="path889"
       inkscape:connector-curvature="0" />
  </g>
</svg>
